<svg xmlns="http://www.w3.org/2000/svg" id="a74b504d-8f27-42fa-9c2d-377300434abb" data-name="Layer 1" width="900" height="672.43077" viewBox="300 0 900 672.43077"><title>city-night</title><path d="M962.121,190.78847C833.082,91.32418,653.55921,87.26,522.58873,184.17153,453.3542,235.4026,399.67958,313.78159,409.44548,433.122c3.45124,42.2125,13.05755,76.84237,27.07243,105.19117,56.76478,114.92346,289.91181,110.49821,302.86024,110.48138q12.58312-.01256,25.16627.5626a551.94249,551.94249,0,0,1,87.406,11.0507c41.05365,8.5567,93.31754,12.856,140.01415-3.35045a162.301,162.301,0,0,0,23.05855-10.0262c25.66173-13.63706,54.38844-26.66941,71.18275-59.01527,12.621-24.27612,21.81578-54.71582,26.24116-92.629C1128.55269,357.31249,1048.07439,257.04209,962.121,190.78847Z" transform="translate(-38.5 -113.78462)" fill="#f2f2f2"/><ellipse cx="726.60828" cy="537.22468" rx="368.98853" ry="34.63685" fill="#3f3d56"/><ellipse cx="708.58297" cy="537.22468" rx="343.1876" ry="16.25812" opacity="0.1"/><polygon points="898.439 73.342 898.439 112.201 847.849 112.201 847.849 535.988 953.429 535.988 953.429 128.332 953.429 112.201 953.429 73.342 898.439 73.342" fill="#575a89"/><polygon points="619.825 334.359 619.825 267.639 555.304 267.639 555.304 334.359 531.109 334.359 531.109 536.721 643.287 536.721 643.287 334.359 619.825 334.359" fill="#575a89"/><rect x="543.57288" y="442.87196" width="87.25013" height="94.58207" fill="#3f3d56"/><rect x="543.57288" y="442.87196" width="13.93069" height="94.58207" opacity="0.1"/><polygon points="810.456 52.079 810.456 74.808 681.413 74.808 681.413 52.079 643.287 52.079 643.287 537.454 847.849 537.454 847.849 52.079 810.456 52.079" fill="#3f3d56"/><rect x="810.45563" y="52.07936" width="28.59458" height="22.72903" opacity="0.1"/><rect x="643.28732" y="52.07936" width="28.59458" height="485.37467" opacity="0.1"/><polygon points="497.382 190.653 497.382 172.323 478.319 172.323 478.319 190.653 443.858 190.653 443.858 537.454 531.109 537.454 531.109 190.653 497.382 190.653" fill="#3f3d56"/><rect x="478.31858" y="172.32324" width="10.26472" height="18.32986" opacity="0.1"/><rect x="443.85845" y="190.6531" width="10.26472" height="346.80094" opacity="0.1"/><rect x="810.45563" y="239.04393" width="28.59458" height="298.41011" opacity="0.1"/><rect x="504.71358" y="190.6531" width="26.395" height="63.78791" opacity="0.1"/><rect x="674.81467" y="113.66769" width="41.05888" height="17.59666" fill="rgb(255, 196, 0)"/><rect x="762.0648" y="294.7667" width="41.05888" height="17.59666" fill="rgb(255, 196, 0)"/><rect x="674.81467" y="421.60933" width="41.05888" height="17.59666" fill="rgb(255, 196, 0)"/><rect x="467.32067" y="269.83809" width="41.05888" height="17.59666" fill="rgb(255, 196, 0)"/><rect x="567.0351" y="453.13668" width="41.05888" height="17.59666" fill="rgb(255, 196, 0)"/><rect x="552.37121" y="349.75628" width="70.38666" height="29.32777" opacity="0.1"/><rect x="860.31285" y="145.92824" width="70.38666" height="29.32777" opacity="0.1"/><rect x="860.31285" y="208.24976" width="70.38666" height="29.32777" opacity="0.1"/><rect x="860.31285" y="270.57129" width="70.38666" height="29.32777" opacity="0.1"/><rect x="860.31285" y="332.89281" width="70.38666" height="29.32777" opacity="0.1"/><rect x="860.31285" y="395.21433" width="70.38666" height="29.32777" opacity="0.1"/><rect x="860.31285" y="457.53585" width="70.38666" height="29.32777" opacity="0.1"/><polygon points="977.624 278.636 977.624 198.718 926.3 198.718 926.3 278.636 907.97 278.636 907.97 537.454 995.221 537.454 995.221 278.636 977.624 278.636" fill="#3f3d56"/><rect x="926.30034" y="198.71824" width="16.13028" height="79.91819" opacity="0.1"/><rect x="907.97048" y="278.63642" width="16.13028" height="258.81761" opacity="0.1"/><rect x="951.96215" y="408.41183" width="43.25847" height="25.6618" opacity="0.1"/><rect x="953.42853" y="370.28572" width="41.05888" height="17.59666" fill="rgb(255, 196, 0)"/></svg>